<svg width="20" height="20" viewBox="0 0 20 20" fill="none" xmlns="http://www.w3.org/2000/svg">
<path d="M10 0C15.523 0 20 4.477 20 10C20 15.523 15.523 20 10 20C4.477 20 0 15.523 0 10C0 4.477 4.477 0 10 0ZM10 1.395C7.71781 1.395 5.5291 2.3016 3.91535 3.91535C2.3016 5.5291 1.395 7.71781 1.395 10C1.395 12.2822 2.3016 14.4709 3.91535 16.0847C5.5291 17.6984 7.71781 18.605 10 18.605C12.2822 18.605 14.4709 17.6984 16.0847 16.0847C17.6984 14.4709 18.605 12.2822 18.605 10C18.605 7.71781 17.6984 5.5291 16.0847 3.91535C14.4709 2.3016 12.2822 1.395 10 1.395ZM12.207 6.837C12.3367 6.71872 12.507 6.65498 12.6824 6.65906C12.8579 6.66313 13.0251 6.7347 13.1491 6.85888C13.2731 6.98305 13.3445 7.15027 13.3484 7.32575C13.3523 7.50122 13.2884 7.67145 13.17 7.801L10.975 9.994L13.17 12.187C13.2913 12.316 13.3576 12.4872 13.355 12.6643C13.3523 12.8414 13.2809 13.0105 13.1558 13.1358C13.0307 13.2612 12.8618 13.333 12.6847 13.336C12.5076 13.339 12.3363 13.273 12.207 13.152L10.01 10.957L7.815 13.152C7.70055 13.2662 7.54923 13.3361 7.38804 13.3491C7.22685 13.3621 7.06629 13.3174 6.935 13.223L6.851 13.151C6.72325 13.0231 6.65149 12.8498 6.65149 12.669C6.65149 12.4882 6.72325 12.3149 6.851 12.187L9.046 9.994L6.851 7.801C6.78434 7.73847 6.73092 7.66318 6.69393 7.57961C6.65694 7.49603 6.63712 7.40587 6.63566 7.31448C6.6342 7.2231 6.65112 7.13235 6.68542 7.04763C6.71972 6.96291 6.7707 6.88595 6.83533 6.82133C6.89995 6.7567 6.97691 6.70572 7.06163 6.67142C7.14635 6.63712 7.2371 6.6202 7.32848 6.62166C7.41987 6.62312 7.51003 6.64294 7.59361 6.67993C7.67718 6.71692 7.75247 6.77034 7.815 6.837L10.01 9.03L12.207 6.837Z" fill="#B7D2FF"/>
</svg>
