<svg width="30" height="30" viewBox="0 0 30 30" fill="none" xmlns="http://www.w3.org/2000/svg">
<path d="M25.25 15C25.25 16.4774 24.959 17.9403 24.3936 19.3052C23.8283 20.6701 22.9996 21.9103 21.955 22.955C20.9103 23.9996 19.6701 24.8283 18.3052 25.3936C16.9403 25.959 15.4774 26.25 14 26.25C12.5226 26.25 11.0597 25.959 9.69481 25.3936C8.3299 24.8283 7.08971 23.9996 6.04505 22.955C5.00039 21.9103 4.17172 20.6701 3.60636 19.3052C3.04099 17.9403 2.75 16.4774 2.75 15C2.75 12.0163 3.93526 9.15483 6.04505 7.04505C8.15483 4.93526 11.0163 3.75 14 3.75C16.9837 3.75 19.8452 4.93526 21.955 7.04505C24.0647 9.15483 25.25 12.0163 25.25 15Z" stroke="#E8E8E8" stroke-width="2"/>
<path d="M9 16.25L12.125 19.375L19 12.5" stroke="#E8E8E8" stroke-width="2" stroke-linecap="round" stroke-linejoin="round"/>
</svg>
