<svg width="20" height="20" viewBox="0 0 20 20" fill="none" xmlns="http://www.w3.org/2000/svg">
<g clip-path="url(#clip0_145_23654)">
<path d="M16.3889 3.88892H5.83333C5.61232 3.88892 5.40036 3.97671 5.24408 4.13299C5.0878 4.28927 5 4.50124 5 4.72225V18.0556C5 18.2766 5.0878 18.4886 5.24408 18.6448C5.40036 18.8011 5.61232 18.8889 5.83333 18.8889H16.3889C16.6099 18.8889 16.8219 18.8011 16.9781 18.6448C17.1344 18.4886 17.2222 18.2766 17.2222 18.0556V4.72225C17.2222 4.50124 17.1344 4.28927 16.9781 4.13299C16.8219 3.97671 16.6099 3.88892 16.3889 3.88892ZM16.1111 17.7778H6.11111V5.00003H16.1111V17.7778Z" fill="#808080"/>
<path d="M14.4449 1.94442C14.4449 1.7234 14.3571 1.51144 14.2008 1.35516C14.0445 1.19888 13.8326 1.11108 13.6115 1.11108H3.05599C2.83498 1.11108 2.62301 1.19888 2.46673 1.35516C2.31045 1.51144 2.22266 1.7234 2.22266 1.94442V15.2778C2.22266 15.4988 2.31045 15.7107 2.46673 15.867C2.62301 16.0233 2.83498 16.1111 3.05599 16.1111H3.33377V2.2222H14.4449V1.94442Z" fill="#808080"/>
</g>
<defs>
<clipPath id="clip0_145_23654">
<rect width="20" height="20" fill="white"/>
</clipPath>
</defs>
</svg>
