<?xml version="1.0" encoding="utf-8"?>
<!-- Generator: Adobe Illustrator 27.4.0, SVG Export Plug-In . SVG Version: 6.00 Build 0)  -->
<svg version="1.1" id="레이어_1" xmlns="http://www.w3.org/2000/svg" xmlns:xlink="http://www.w3.org/1999/xlink" x="0px"
	 y="0px" viewBox="0 0 24 24" style="enable-background:new 0 0 24 24;" xml:space="preserve">
<style type="text/css">
	.st0{fill:#4E4E4E;}
</style>
<g>
	<path class="st0" d="M21.8,3.6c-0.1-0.3-0.4-0.6-0.6-0.9c-0.3-0.3-0.6-0.5-0.9-0.6c-0.7-0.3-1.5-0.3-2.2,0
		c-0.3,0.1-0.7,0.3-0.9,0.6l-5.7,5.5c-0.4,0.4-0.7,1-0.9,1.6L10,12.3c-0.1,0.3,0,0.7,0.3,0.9c0.2,0.2,0.4,0.3,0.7,0.3
		c0.1,0,0.1,0,0.2,0l2.6-0.5c0.6-0.1,1.1-0.4,1.6-0.8l5.7-5.5c0.3-0.3,0.5-0.6,0.6-0.9C21.9,5.4,22,5,22,4.7
		C22,4.3,21.9,3.9,21.8,3.6z M14,10.7c-0.2,0.2-0.4,0.3-0.6,0.3l-1.2,0.2l0.2-1.1c0-0.2,0.1-0.4,0.3-0.5l3.4-3.3l1.2,1.1L14,10.7z
		 M19.9,4.9c0,0.1-0.1,0.2-0.2,0.2l-0.9,0.9l-1.2-1.1l0.9-0.8c0,0,0,0,0,0C18.6,4,18.7,4,18.8,3.9c0.2-0.1,0.5-0.1,0.7,0
		c0.1,0,0.2,0.1,0.3,0.2c0.1,0.1,0.1,0.2,0.2,0.3C20,4.5,20,4.6,20,4.7S20,4.8,19.9,4.9z"/>
	<path class="st0" d="M19,13.4c-0.6,0-1,0.4-1,1v2.9c0,0.2-0.1,0.5-0.3,0.6c-0.2,0.2-0.4,0.3-0.7,0.3H6c-0.3,0-0.5-0.1-0.7-0.3
		C5.1,17.7,5,17.5,5,17.3V6.7c0-0.2,0.1-0.5,0.3-0.6C5.5,5.9,5.7,5.8,6,5.8h3c0.6,0,1-0.4,1-1s-0.4-1-1-1H6c-0.8,0-1.5,0.3-2.1,0.8
		C3.3,5.2,3,5.9,3,6.7v10.5c0,0.8,0.3,1.5,0.9,2.1c0.6,0.5,1.3,0.8,2.1,0.8h11c0.8,0,1.5-0.3,2.1-0.8c0.6-0.5,0.9-1.3,0.9-2.1v-2.9
		C20,13.8,19.6,13.4,19,13.4z"/>
</g>
</svg>
