<svg width="24" height="24" viewBox="0 0 24 24" fill="none" xmlns="http://www.w3.org/2000/svg">
<path fill-rule="evenodd" clip-rule="evenodd" d="M12 2C6.47727 2 2 6.47727 2 12C2 17.5227 6.47727 22 12 22C17.5227 22 22 17.5227 22 12C22 6.47727 17.5227 2 12 2ZM15.37 9.91545C15.5356 9.744 15.6272 9.51436 15.6252 9.276C15.6231 9.03764 15.5275 8.80963 15.3589 8.64107C15.1904 8.47252 14.9624 8.37691 14.724 8.37484C14.4856 8.37277 14.256 8.4644 14.0845 8.63L12 10.7145L9.91545 8.63C9.83159 8.54317 9.73128 8.47392 9.62037 8.42627C9.50946 8.37863 9.39016 8.35355 9.26946 8.3525C9.14875 8.35145 9.02904 8.37445 8.91731 8.42016C8.80559 8.46587 8.70409 8.53338 8.61873 8.61873C8.53338 8.70409 8.46587 8.80559 8.42016 8.91731C8.37445 9.02904 8.35145 9.14875 8.3525 9.26946C8.35355 9.39016 8.37863 9.50946 8.42627 9.62037C8.47392 9.73128 8.54317 9.83159 8.63 9.91545L10.7145 12L8.63 14.0845C8.54317 14.1684 8.47392 14.2687 8.42627 14.3796C8.37863 14.4905 8.35355 14.6098 8.3525 14.7305C8.35145 14.8513 8.37445 14.971 8.42016 15.0827C8.46587 15.1944 8.53338 15.2959 8.61873 15.3813C8.70409 15.4666 8.80559 15.5341 8.91731 15.5798C9.02904 15.6255 9.14875 15.6486 9.26946 15.6475C9.39016 15.6465 9.50946 15.6214 9.62037 15.5737C9.73128 15.5261 9.83159 15.4568 9.91545 15.37L12 13.2855L14.0845 15.37C14.256 15.5356 14.4856 15.6272 14.724 15.6252C14.9624 15.6231 15.1904 15.5275 15.3589 15.3589C15.5275 15.1904 15.6231 14.9624 15.6252 14.724C15.6272 14.4856 15.5356 14.256 15.37 14.0845L13.2855 12L15.37 9.91545Z" fill="#FF2020"/>
</svg>
