<svg width="20" height="20" viewBox="0 0 20 20" fill="none" xmlns="http://www.w3.org/2000/svg">
<path d="M4.16667 18.3333H15.8333C16.2754 18.3333 16.6993 18.1577 17.0118 17.8452C17.3244 17.5326 17.5 17.1087 17.5 16.6667V9.16668C17.5006 9.057 17.4796 8.94829 17.4381 8.84675C17.3967 8.74522 17.3356 8.65288 17.2583 8.57501L10.5917 1.90834C10.4355 1.75313 10.2243 1.66602 10.0042 1.66602C9.78401 1.66602 9.5728 1.75313 9.41667 1.90834L2.75 8.57501C2.67126 8.65219 2.60862 8.74423 2.5657 8.84579C2.52279 8.94735 2.50046 9.05642 2.5 9.16668V16.6667C2.5 17.1087 2.67559 17.5326 2.98816 17.8452C3.30072 18.1577 3.72464 18.3333 4.16667 18.3333ZM8.33333 16.6667V12.5H11.6667V16.6667H8.33333ZM4.16667 9.50834L10 3.67501L15.8333 9.50834V16.6667H13.3333V12.5C13.3333 12.058 13.1577 11.6341 12.8452 11.3215C12.5326 11.0089 12.1087 10.8333 11.6667 10.8333H8.33333C7.89131 10.8333 7.46738 11.0089 7.15482 11.3215C6.84226 11.6341 6.66667 12.058 6.66667 12.5V16.6667H4.16667V9.50834Z" fill="#777777"/>
</svg>
