<svg width="25" height="25" viewBox="0 0 25 25" fill="none" xmlns="http://www.w3.org/2000/svg">
<path d="M12.5 6.25C11.7274 6.25 10.9722 6.4791 10.3298 6.90832C9.68743 7.33755 9.18675 7.94762 8.8911 8.66139C8.59544 9.37517 8.51809 10.1606 8.66881 10.9183C8.81953 11.6761 9.19157 12.3721 9.73787 12.9184C10.2842 13.4647 10.9802 13.8367 11.7379 13.9874C12.4957 14.1382 13.2811 14.0608 13.9949 13.7652C14.7086 13.4695 15.3187 12.9688 15.7479 12.3264C16.1772 11.6841 16.4063 10.9288 16.4063 10.1562C16.4063 9.12025 15.9947 8.12668 15.2621 7.39411C14.5296 6.66155 13.536 6.25 12.5 6.25Z" fill="#4E4E4E"/>
<path d="M12.5 1.5625C10.3368 1.5625 8.22212 2.20397 6.42346 3.4058C4.62479 4.60763 3.22291 6.31583 2.39507 8.3144C1.56724 10.313 1.35064 12.5121 1.77267 14.6338C2.19469 16.7555 3.23639 18.7043 4.76602 20.234C6.29566 21.7636 8.24454 22.8053 10.3662 23.2273C12.4879 23.6494 14.687 23.4328 16.6856 22.6049C18.6842 21.7771 20.3924 20.3752 21.5942 18.5765C22.796 16.7779 23.4375 14.6632 23.4375 12.5C23.4342 9.60021 22.2808 6.82014 20.2303 4.76967C18.1799 2.71921 15.3998 1.56581 12.5 1.5625ZM18.7438 19.4734C18.7282 18.4487 18.3107 17.4711 17.5812 16.7512C16.8517 16.0314 15.8686 15.6269 14.8438 15.625H10.1563C9.1314 15.6269 8.14832 16.0314 7.41882 16.7512C6.68933 17.4711 6.27182 18.4487 6.25626 19.4734C4.83951 18.2084 3.84042 16.5429 3.39128 14.6974C2.94214 12.8519 3.06414 10.9135 3.74113 9.13895C4.41811 7.36436 5.61815 5.83724 7.18233 4.75982C8.74651 3.6824 10.6011 3.10549 12.5004 3.10549C14.3997 3.10549 16.2543 3.6824 17.8185 4.75982C19.3826 5.83724 20.5827 7.36436 21.2597 9.13895C21.9366 10.9135 22.0586 12.8519 21.6095 14.6974C21.1604 16.5429 20.1613 18.2084 18.7445 19.4734H18.7438Z" fill="#4E4E4E"/>
</svg>
