<svg width="24" height="24" viewBox="0 0 24 24" fill="none" xmlns="http://www.w3.org/2000/svg">
<path d="M4 11C3.71667 11 3.47933 10.904 3.288 10.712C3.096 10.5207 3 10.2833 3 10V4C3 3.71667 3.096 3.479 3.288 3.287C3.47933 3.09567 3.71667 3 4 3H10C10.2833 3 10.521 3.09567 10.713 3.287C10.9043 3.479 11 3.71667 11 4V10C11 10.2833 10.9043 10.5207 10.713 10.712C10.521 10.904 10.2833 11 10 11H4ZM5 5V9V5ZM14 11C13.7167 11 13.4793 10.904 13.288 10.712C13.096 10.5207 13 10.2833 13 10V4C13 3.71667 13.096 3.479 13.288 3.287C13.4793 3.09567 13.7167 3 14 3H20C20.2833 3 20.5207 3.09567 20.712 3.287C20.904 3.479 21 3.71667 21 4V10C21 10.2833 20.904 10.5207 20.712 10.712C20.5207 10.904 20.2833 11 20 11H14ZM15 5V9V5ZM4 21C3.71667 21 3.47933 20.904 3.288 20.712C3.096 20.5207 3 20.2833 3 20V14C3 13.7167 3.096 13.479 3.288 13.287C3.47933 13.0957 3.71667 13 4 13H10C10.2833 13 10.521 13.0957 10.713 13.287C10.9043 13.479 11 13.7167 11 14V20C11 20.2833 10.9043 20.5207 10.713 20.712C10.521 20.904 10.2833 21 10 21H4ZM5 15V19V15ZM17 21C16.7167 21 16.4793 20.904 16.288 20.712C16.096 20.5207 16 20.2833 16 20V18H13.975C13.6917 18 13.4583 17.904 13.275 17.712C13.0917 17.5207 13 17.2833 13 17C13 16.7167 13.096 16.4793 13.288 16.288C13.4793 16.096 13.7167 16 14 16H16V13.975C16 13.6917 16.096 13.4583 16.288 13.275C16.4793 13.0917 16.7167 13 17 13C17.2833 13 17.5207 13.0957 17.712 13.287C17.904 13.479 18 13.7167 18 14V16H20.025C20.3083 16 20.5417 16.096 20.725 16.288C20.9083 16.4793 21 16.7167 21 17C21 17.2833 20.904 17.5207 20.712 17.712C20.5207 17.904 20.2833 18 20 18H18V20.025C18 20.3083 17.904 20.5417 17.712 20.725C17.5207 20.9083 17.2833 21 17 21ZM15 5V9H19V5H15ZM5 5V9H9V5H5ZM5 15V19H9V15H5Z" fill="#4A628F"/>
</svg>
