<svg width="39" height="40" viewBox="0 0 39 40" fill="none" xmlns="http://www.w3.org/2000/svg">
<path d="M33.039 32.15L27.6149 26.5C29.365 24.1708 30.3145 21.2944 30.311 18.3333C30.311 15.6963 29.5625 13.1184 28.1601 10.9257C26.7578 8.73308 24.7646 7.02411 22.4325 6.01495C20.1005 5.00578 17.5344 4.74173 15.0587 5.2562C12.5831 5.77067 10.309 7.04055 8.52417 8.90525C6.73931 10.7699 5.52381 13.1457 5.03137 15.7321C4.53892 18.3185 4.79166 20.9994 5.75762 23.4358C6.72358 25.8721 8.35937 27.9545 10.4581 29.4196C12.5569 30.8847 15.0244 31.6667 17.5486 31.6667C20.3829 31.6704 23.136 30.6783 25.3656 28.85L30.7736 34.5167C30.9219 34.6729 31.0984 34.7969 31.2928 34.8815C31.4872 34.9661 31.6957 35.0097 31.9063 35.0097C32.1169 35.0097 32.3254 34.9661 32.5198 34.8815C32.7142 34.7969 32.8907 34.6729 33.039 34.5167C33.1885 34.3617 33.3072 34.1774 33.3882 33.9743C33.4692 33.7712 33.5109 33.5534 33.5109 33.3333C33.5109 33.1133 33.4692 32.8955 33.3882 32.6924C33.3072 32.4893 33.1885 32.3049 33.039 32.15ZM7.97675 18.3333C7.97675 16.3555 8.53812 14.4221 9.58989 12.7776C10.6417 11.1331 12.1366 9.85142 13.8856 9.09454C15.6346 8.33767 17.5592 8.13963 19.4159 8.52549C21.2727 8.91134 22.9782 9.86375 24.3169 11.2623C25.6555 12.6608 26.5671 14.4426 26.9365 16.3824C27.3058 18.3222 27.1163 20.3329 26.3918 22.1602C25.6673 23.9874 24.4405 25.5492 22.8664 26.648C21.2923 27.7468 19.4417 28.3333 17.5486 28.3333C15.01 28.3333 12.5753 27.2798 10.7803 25.4044C8.9852 23.529 7.97675 20.9855 7.97675 18.3333Z" fill="#6588CD"/>
</svg>
