<svg width="40" height="40" viewBox="0 0 60 60" fill="none" xmlns="http://www.w3.org/2000/svg">
<circle cx="30" cy="30" r="30" fill="#e7e7e7"/>
<path d="M30 13.333C28.3518 13.333 26.7407 13.8217 25.3702 14.7374C23.9998 15.6531 22.9317 16.9546 22.301 18.4773C21.6703 20 21.5052 21.6756 21.8268 23.2921C22.1483 24.9086 22.942 26.3935 24.1074 27.5589C25.2729 28.7243 26.7577 29.518 28.3742 29.8396C29.9908 30.1611 31.6663 29.9961 33.189 29.3653C34.7117 28.7346 36.0132 27.6665 36.9289 26.2961C37.8446 24.9257 38.3333 23.3145 38.3333 21.6663C38.3333 19.4562 37.4554 17.3366 35.8926 15.7738C34.3298 14.211 32.2101 13.333 30 13.333ZM30 26.6663C29.0111 26.6663 28.0444 26.3731 27.2221 25.8237C26.3999 25.2743 25.759 24.4934 25.3806 23.5798C25.0022 22.6661 24.9031 21.6608 25.0961 20.6909C25.289 19.721 25.7652 18.8301 26.4645 18.1308C27.1637 17.4315 28.0546 16.9553 29.0245 16.7624C29.9945 16.5695 30.9998 16.6685 31.9134 17.0469C32.827 17.4254 33.6079 18.0662 34.1573 18.8885C34.7068 19.7107 35 20.6774 35 21.6663C35 22.9924 34.4732 24.2642 33.5355 25.2019C32.5979 26.1396 31.3261 26.6663 30 26.6663ZM45 44.9997V43.333C45 40.2388 43.7708 37.2714 41.5829 35.0834C39.395 32.8955 36.4275 31.6663 33.3333 31.6663H26.6667C23.5725 31.6663 20.605 32.8955 18.4171 35.0834C16.2292 37.2714 15 40.2388 15 43.333V44.9997H18.3333V43.333C18.3333 41.1229 19.2113 39.0033 20.7741 37.4405C22.3369 35.8776 24.4565 34.9997 26.6667 34.9997H33.3333C35.5435 34.9997 37.6631 35.8776 39.2259 37.4405C40.7887 39.0033 41.6667 41.1229 41.6667 43.333V44.9997H45Z" fill="#9A9A9A"/>
</svg>
